<svg width="42" height="41" viewBox="0 0 42 41" fill="none" xmlns="http://www.w3.org/2000/svg">
<path d="M41.2998 18.8604C41.2998 27.6683 33.4385 34.7401 23.7803 34.7402C14.1219 34.7402 6.25981 27.6684 6.25977 18.8604C6.25977 10.0523 14.1219 2.98047 23.7803 2.98047C33.4385 2.9806 41.2998 10.0524 41.2998 18.8604ZM38.6738 18.8604C38.6738 11.447 32.0508 5.41322 23.7803 5.41309C15.5096 5.41309 8.88575 11.4469 8.88575 18.8604C8.88579 26.2738 15.5096 32.3076 23.7803 32.3076C32.0508 32.3075 38.6738 26.2737 38.6738 18.8604Z" fill="#F8F8F8" stroke="#F8F8F8" stroke-width="0.6"/>
<path d="M21.8938 27.8125L20.3215 26.2402L20.5334 26.0283L27.1282 19.4346L20.5334 12.8408L20.3215 12.6289L20.5334 12.416L21.6819 11.2686L21.8938 11.0566L30.2717 19.4346L21.8938 27.8125Z" fill="#F8F8F8" stroke="#F8F8F8" stroke-width="0.6"/>
<path d="M28.9998 20.5547H14.4597V18.3145H28.9998V20.5547Z" fill="#F8F8F8" stroke="#F8F8F8" stroke-width="0.6"/>
</svg>
