<svg width="43" height="43" viewBox="0 0 43 43" fill="none" xmlns="http://www.w3.org/2000/svg">
<path d="M38.8333 5H5.38889C4.75532 5 4.14769 5.25169 3.69969 5.69969C3.25169 6.14769 3 6.75532 3 7.38889V31.2778C3 31.9114 3.25169 32.519 3.69969 32.967C4.14769 33.415 4.75532 33.6667 5.38889 33.6667H38.8333C39.4669 33.6667 40.0745 33.415 40.5225 32.967C40.9705 32.519 41.2222 31.9114 41.2222 31.2778V7.38889C41.2222 6.75532 40.9705 6.14769 40.5225 5.69969C40.0745 5.25169 39.4669 5 38.8333 5ZM36.9939 31.2778H7.37167L15.7328 22.63L14.0128 20.9697L5.38889 29.8922V9.20444L20.2358 23.9797C20.6834 24.4247 21.2889 24.6744 21.92 24.6744C22.5511 24.6744 23.1566 24.4247 23.6042 23.9797L38.8333 8.83417V29.7369L30.0422 20.9458L28.3581 22.63L36.9939 31.2778ZM6.95361 7.38889H36.8983L21.92 22.2836L6.95361 7.38889Z" fill="white"/>
</svg>
