<svg width="64" height="64" viewBox="0 0 64 64" fill="none" xmlns="http://www.w3.org/2000/svg">
<path d="M19.3872 32.001C19.3872 31.3999 19.5165 30.8055 19.7661 30.2588C19.9846 29.7803 20.2909 29.3478 20.6685 28.9834L20.8345 28.832L34.4253 17.6133C35.1698 17.0186 36.0658 16.6436 37.0122 16.5322C37.9602 16.4207 38.9204 16.5782 39.7837 16.9854C40.498 17.3274 41.1013 17.8647 41.523 18.5352C41.9445 19.2055 42.1677 19.9815 42.1665 20.7734V43.2285C42.1676 44.0204 41.9445 44.7965 41.523 45.4668C41.1013 46.1372 40.498 46.6746 39.7837 47.0166C38.9205 47.4237 37.9601 47.5803 37.0122 47.4688C36.0634 47.3571 35.1641 46.9822 34.4185 46.3848L20.8345 35.1699C20.3803 34.7763 20.0158 34.2889 19.7661 33.7422C19.5166 33.1956 19.3872 32.6018 19.3872 32.001Z" fill="#B3B2B2" stroke="black"/>
</svg>
