<svg width="43" height="43" viewBox="0 0 43 43" fill="none" xmlns="http://www.w3.org/2000/svg">
<path d="M33.8517 31.1639L24.3514 40.6669C23.977 41.0415 23.5325 41.3386 23.0433 41.5414C22.554 41.7441 22.0296 41.8485 21.5 41.8485C20.9704 41.8485 20.4459 41.7441 19.9567 41.5414C19.4674 41.3386 19.0229 41.0415 18.6485 40.6669L9.14822 31.1639C7.52599 29.5418 6.23913 27.6161 5.36112 25.4967C4.4831 23.3773 4.03113 21.1058 4.03101 18.8117C4.03088 16.5177 4.48261 14.246 5.36039 12.1266C6.23817 10.0071 7.52482 8.08124 9.14687 6.45901C10.7689 4.83678 12.6946 3.54992 14.814 2.67191C16.9334 1.79389 19.205 1.34192 21.499 1.3418C23.7931 1.34167 26.0647 1.7934 28.1842 2.67118C30.3037 3.54896 32.2295 4.83561 33.8517 6.45767C35.4741 8.07982 36.761 10.0057 37.6391 12.1252C38.5171 14.2448 38.969 16.5165 38.969 18.8108C38.969 21.105 38.5171 23.3767 37.6391 25.4963C36.761 27.6159 35.4741 29.5417 33.8517 31.1639ZM31.003 9.3091C29.755 8.06115 28.2735 7.07122 26.643 6.39583C25.0124 5.72045 23.2648 5.37283 21.5 5.37283C19.7351 5.37283 17.9875 5.72045 16.357 6.39583C14.7265 7.07122 13.2449 8.06115 11.997 9.3091C10.749 10.5571 9.75909 12.0386 9.0837 13.6691C8.40831 15.2996 8.0607 17.0472 8.0607 18.8121C8.0607 20.577 8.40831 22.3246 9.0837 23.9551C9.75909 25.5856 10.749 27.0672 11.997 28.3151L21.5 37.8127L31.003 28.3151C32.2511 27.0673 33.2413 25.5858 33.9168 23.9552C34.5923 22.3247 34.94 20.577 34.94 18.8121C34.94 17.0472 34.5923 15.2995 33.9168 13.669C33.2413 12.0384 32.2511 10.5569 31.003 9.3091ZM21.5 24.1871C20.7842 24.2033 20.0724 24.0763 19.4063 23.8136C18.7403 23.5509 18.1335 23.1578 17.6214 22.6574C17.1094 22.1569 16.7025 21.5592 16.4247 20.8994C16.1468 20.2395 16.0036 19.5308 16.0035 18.8148C16.0033 18.0989 16.1461 17.3901 16.4237 16.7301C16.7012 16.0701 17.1078 15.4722 17.6195 14.9715C18.1313 14.4708 18.7379 14.0774 19.4038 13.8143C20.0697 13.5513 20.7815 13.424 21.4973 13.4398C22.9017 13.4708 24.2381 14.0505 25.2205 15.0545C26.2028 16.0586 26.7531 17.4074 26.7535 18.8121C26.7538 20.2169 26.2042 21.5659 25.2223 22.5705C24.2405 23.5751 22.9043 24.1553 21.5 24.1871Z" fill="white"/>
</svg>
