<svg width="43" height="43" viewBox="0 0 43 43" fill="none" xmlns="http://www.w3.org/2000/svg">
<path d="M29.7936 24.8877L30.6106 24.0761L28.7133 22.1698L27.8999 22.9814L29.7936 24.8877ZM33.3501 23.7357L36.774 25.5972L38.055 23.2358L34.6329 21.3761L33.3501 23.7357ZM37.4315 29.2952L34.8874 31.8269L36.7811 33.7314L39.3253 31.2016L37.4315 29.2952ZM33.3358 32.6403C30.7379 32.884 24.0191 32.6672 16.7414 25.4324L14.8458 27.337C22.7864 35.2328 30.3455 35.6198 33.5866 35.317L33.3358 32.6403ZM16.7414 25.4324C9.80582 18.5345 8.65557 12.7349 8.51223 10.2176L5.82832 10.3699C6.00748 13.5375 7.43186 19.966 14.8458 27.337L16.7414 25.4324ZM19.2049 14.3599L19.7191 13.8475L17.8271 11.943L17.3129 12.4536L19.2049 14.3599ZM20.1276 7.33479L17.8701 4.31762L15.7183 5.93012L17.9758 8.9455L20.1276 7.33479ZM10.2717 3.66008L7.45873 6.45508L9.35432 8.36141L12.1654 5.56641L10.2717 3.66008ZM18.2589 13.4067C17.3093 12.4536 17.3093 12.4536 17.3093 12.4572H17.3057L17.3004 12.4643C17.2152 12.5502 17.139 12.6444 17.0728 12.7456C16.9761 12.889 16.8704 13.0771 16.7808 13.3154C16.5627 13.9305 16.5084 14.5918 16.6231 15.2342C16.8632 16.784 17.931 18.8319 20.6651 21.5517L22.5607 19.6453C20.0004 17.1012 19.3912 15.5532 19.2784 14.8222C19.2246 14.4746 19.2802 14.3026 19.2963 14.2632C19.307 14.2393 19.307 14.2357 19.2963 14.2524C19.2803 14.2771 19.2623 14.3005 19.2425 14.3223L19.2246 14.3402L19.2067 14.3563L18.2589 13.4067ZM20.6651 21.5517C23.401 24.2714 25.4596 25.3321 27.0112 25.5686C27.8049 25.6904 28.4445 25.5937 28.9301 25.4127C29.202 25.3132 29.4562 25.1704 29.6826 24.9899L29.7722 24.9092L29.7847 24.8985L29.7901 24.8931L29.7919 24.8895C29.7919 24.8895 29.7937 24.8877 28.8459 23.9346C27.8963 22.9814 27.9017 22.9796 27.9017 22.9796L27.9052 22.976L27.9088 22.9725L27.9196 22.9635L27.9375 22.9456L28.0056 22.8918C28.0223 22.8811 28.0181 22.8823 27.993 22.8954C27.9482 22.9115 27.7726 22.9671 27.4197 22.9133C26.6779 22.7987 25.1192 22.1895 22.5607 19.6453L20.6651 21.5517ZM17.8701 4.31583C16.0426 1.87916 12.4521 1.49216 10.2717 3.66008L12.1654 5.56641C13.1186 4.61862 14.8099 4.71716 15.7183 5.93012L17.8701 4.31583ZM8.51403 10.2194C8.47819 9.59945 8.76307 8.95087 9.35432 8.3632L7.45694 6.45687C6.49482 7.41362 5.73694 8.76812 5.82832 10.3699L8.51403 10.2194ZM34.8874 31.8269C34.3964 32.3178 33.8661 32.5937 33.3376 32.6421L33.5866 35.317C34.9035 35.1934 35.9803 34.5305 36.7829 33.7332L34.8874 31.8269ZM19.7191 13.8475C21.4839 12.0935 21.6147 9.32175 20.1294 7.33658L17.9776 8.94729C18.6997 9.913 18.5922 11.1797 17.8253 11.9447L19.7191 13.8475ZM36.7758 25.599C38.2396 26.3945 38.4671 28.2686 37.4333 29.297L39.3289 31.2016C41.7297 28.8133 40.9898 24.8304 38.0568 23.2376L36.7758 25.599ZM30.6106 24.0779C31.2986 23.3935 32.4059 23.2251 33.3519 23.7375L34.6347 21.3779C32.6926 20.3208 30.2846 20.6128 28.7151 22.1716L30.6106 24.0779Z" fill="white"/>
</svg>
