<svg width="64" height="64" viewBox="0 0 64 64" fill="none" xmlns="http://www.w3.org/2000/svg">
<path d="M44.1128 31.999C44.1128 32.5284 43.9987 33.0517 43.7788 33.5332C43.5589 34.0147 43.2384 34.4434 42.8384 34.79L29.2563 46.001C28.5861 46.5345 27.7802 46.8706 26.9292 46.9707C26.0751 47.0712 25.2101 46.9299 24.4321 46.5635C23.803 46.2623 23.2713 45.7897 22.8999 45.1992C22.5286 44.6088 22.3325 43.925 22.3335 43.2275L22.3335 20.7715C22.3325 20.0741 22.5287 19.3902 22.8999 18.7998C23.2249 18.2831 23.6725 17.8561 24.2007 17.5557L24.4321 17.4346C25.2101 17.0682 26.0751 16.9269 26.9292 17.0273C27.7802 17.1275 28.5861 17.4636 29.2563 17.9971L42.8384 29.208C43.2383 29.5546 43.5589 29.9834 43.7788 30.4648C43.9987 30.9463 44.1128 31.4697 44.1128 31.999Z" fill="#F8F8F8" stroke="black" stroke-width="2"/>
</svg>
