<svg width="93" height="391" viewBox="0 0 93 391" fill="none" xmlns="http://www.w3.org/2000/svg">
<path d="M46.0627 236.049C44.9851 235.186 43.4118 235.359 42.5486 236.437C41.6854 237.515 41.8592 239.088 42.9368 239.951L44.4998 238L46.0627 236.049ZM49.961 375.61L48.6218 377.721L52.8439 380.399L54.1831 378.288L52.072 376.949L49.961 375.61ZM46.3037 242.343C47.4679 243.085 49.0134 242.743 49.7556 241.579C50.4979 240.414 50.1558 238.869 48.9915 238.127L47.6476 240.235L46.3037 242.343ZM55.5583 241.765C54.3242 241.146 52.8218 241.644 52.2027 242.878C51.5836 244.112 52.0822 245.615 53.3163 246.234L54.4373 243.999L55.5583 241.765ZM60.3 249.642C61.5402 250.249 63.0375 249.735 63.6443 248.495C64.2511 247.255 63.7377 245.758 62.4975 245.151L61.3987 247.396L60.3 249.642ZM69.5072 248.779C68.3023 248.105 66.779 248.535 66.1048 249.74C65.4306 250.945 65.8608 252.468 67.0657 253.142L68.2865 250.961L69.5072 248.779ZM73.372 257.123C74.4901 257.933 76.0532 257.683 76.8633 256.565C77.6734 255.447 77.4237 253.884 76.3056 253.074L74.8388 255.098L73.372 257.123ZM82.5039 258.429C81.5497 257.431 79.9672 257.395 78.9692 258.349C77.9712 259.304 77.9357 260.886 78.8898 261.884L80.6968 260.156L82.5039 258.429ZM83.2222 267.576C83.9231 268.765 85.4556 269.161 86.6452 268.461C87.8348 267.76 88.2309 266.227 87.5299 265.037L85.376 266.307L83.2222 267.576ZM90.8651 272.655C90.4622 271.334 89.0651 270.59 87.7444 270.993C86.4238 271.396 85.6798 272.793 86.0826 274.113L88.4738 273.384L90.8651 272.655ZM87.4618 281.206C87.595 282.58 88.817 283.586 90.1913 283.453C91.5656 283.32 92.5716 282.098 92.4384 280.724L89.9501 280.965L87.4618 281.206ZM92.5771 288.866C92.6534 287.488 91.5976 286.308 90.219 286.232C88.8404 286.156 87.661 287.211 87.5847 288.59L90.0809 288.728L92.5771 288.866ZM86.741 295.972C86.5121 297.333 87.4304 298.623 88.792 298.851C90.1536 299.08 91.4429 298.162 91.6718 296.801L89.2064 296.386L86.741 295.972ZM90.0067 304.601C90.3487 303.263 89.5415 301.901 88.2038 301.559C86.8661 301.217 85.5045 302.024 85.1625 303.362L87.5846 303.981L90.0067 304.601ZM83.0318 310.669C82.6048 311.982 83.3231 313.393 84.6361 313.82C85.9491 314.247 87.3597 313.528 87.7867 312.215L85.4092 311.442L83.0318 310.669ZM85.1569 319.638C85.6494 318.348 85.0029 316.903 83.713 316.411C82.4231 315.918 80.9782 316.565 80.4858 317.855L82.8213 318.746L85.1569 319.638ZM77.6184 324.919C77.0742 326.188 77.6618 327.658 78.9307 328.202C80.1997 328.746 81.6695 328.158 82.2137 326.889L79.916 325.904L77.6184 324.919ZM79.0167 334.005C79.6028 332.755 79.0644 331.267 77.8143 330.681C76.5641 330.095 75.0756 330.633 74.4895 331.883L76.7531 332.944L79.0167 334.005ZM71.1341 338.781C70.5133 340.014 71.0098 341.517 72.243 342.138C73.4763 342.759 74.9793 342.262 75.6002 341.029L73.3671 339.905L71.1341 338.781ZM71.9808 348.004C72.631 346.786 72.1707 345.271 70.9527 344.621C69.7346 343.971 68.2201 344.431 67.5699 345.649L69.7753 346.827L71.9808 348.004ZM63.871 352.406C63.1959 353.611 63.6249 355.134 64.8293 355.809C66.0337 356.484 67.5573 356.055 68.2325 354.851L66.0517 353.629L63.871 352.406ZM64.3904 361.561C65.0869 360.369 64.6851 358.838 63.4929 358.141C62.3007 357.445 60.7696 357.847 60.0732 359.039L62.2318 360.3L64.3904 361.561ZM56.0933 365.726C55.3779 366.907 55.7552 368.444 56.9361 369.159C58.117 369.875 59.6543 369.497 60.3697 368.317L58.2315 367.021L56.0933 365.726ZM56.3156 374.902C57.0475 373.731 56.6916 372.189 55.5209 371.457C54.3501 370.725 52.8077 371.081 52.0758 372.252L54.1957 373.577L56.3156 374.902ZM44.4998 238L42.9368 239.951C43.9945 240.798 45.1246 241.591 46.3037 242.343L47.6476 240.235L48.9915 238.127C47.9324 237.451 46.9536 236.762 46.0627 236.049L44.4998 238ZM54.4373 243.999L53.3163 246.234C55.5672 247.363 57.9694 248.502 60.3 249.642L61.3987 247.396L62.4975 245.151C60.0801 243.968 57.7891 242.884 55.5583 241.765L54.4373 243.999ZM68.2865 250.961L67.0657 253.142C69.2569 254.368 71.3769 255.677 73.372 257.123L74.8388 255.098L76.3056 253.074C74.1126 251.485 71.8187 250.072 69.5072 248.779L68.2865 250.961ZM80.6968 260.156L78.8898 261.884C80.5223 263.592 81.9829 265.473 83.2222 267.576L85.376 266.307L87.5299 265.037C86.0778 262.573 84.3768 260.388 82.5039 258.429L80.6968 260.156ZM88.4738 273.384L86.0826 274.113C86.7371 276.259 87.2103 278.612 87.4618 281.206L89.9501 280.965L92.4384 280.724C92.1567 277.817 91.6218 275.136 90.8651 272.655L88.4738 273.384ZM90.0809 288.728L87.5847 288.59C87.4573 290.891 87.1822 293.347 86.741 295.972L89.2064 296.386L91.6718 296.801C92.1411 294.009 92.4386 291.368 92.5771 288.866L90.0809 288.728ZM87.5846 303.981L85.1625 303.362C84.5688 305.685 83.8614 308.118 83.0318 310.669L85.4092 311.442L87.7867 312.215C88.6469 309.57 89.3846 307.034 90.0067 304.601L87.5846 303.981ZM82.8213 318.746L80.4858 317.855C79.6186 320.126 78.6643 322.48 77.6184 324.919L79.916 325.904L82.2137 326.889C83.2846 324.392 84.2644 321.976 85.1569 319.638L82.8213 318.746ZM76.7531 332.944L74.4895 331.883C73.4425 334.116 72.325 336.415 71.1341 338.781L73.3671 339.905L75.6002 341.029C76.811 338.623 77.949 336.283 79.0167 334.005L76.7531 332.944ZM69.7753 346.827L67.5699 345.649C66.3965 347.847 65.1641 350.099 63.871 352.406L66.0517 353.629L68.2325 354.851C69.5417 352.515 70.7905 350.234 71.9808 348.004L69.7753 346.827ZM62.2318 360.3L60.0732 359.039C58.7982 361.221 57.4721 363.45 56.0933 365.726L58.2315 367.021L60.3697 368.317C61.7618 366.019 63.1016 363.767 64.3904 361.561L62.2318 360.3ZM54.1957 373.577L52.0758 372.252C51.3827 373.361 50.6778 374.48 49.961 375.61L52.072 376.949L54.1831 378.288C54.9058 377.149 55.6166 376.02 56.3156 374.902L54.1957 373.577Z" fill="#50665B"/>
<ellipse cx="54.9998" cy="376.5" rx="15.5" ry="14.5" fill="#E8C500"/>
<path d="M35.8914 136.545C36.7448 135.46 36.5567 133.888 35.4713 133.035C34.3858 132.181 32.8141 132.369 31.9608 133.455L33.9261 135L35.8914 136.545ZM32.4703 233.262L34.5028 234.718L37.4143 230.653L35.3818 229.197L33.9261 231.229L32.4703 233.262ZM29.346 136.778C28.492 137.863 28.6793 139.435 29.7643 140.289C30.8492 141.142 32.421 140.955 33.275 139.87L31.3105 138.324L29.346 136.778ZM28.069 146.506C28.918 145.417 28.7235 143.846 27.6347 142.997C26.5459 142.148 24.9749 142.343 24.1259 143.431L26.0974 144.969L28.069 146.506ZM18.9581 150.148C18.1255 151.249 18.3434 152.817 19.4448 153.65C20.5463 154.482 22.1141 154.264 22.9467 153.163L20.9524 151.655L18.9581 150.148ZM17.9989 159.899C18.7971 158.773 18.5309 157.212 17.4043 156.414C16.2777 155.616 14.7173 155.882 13.9191 157.009L15.959 158.454L17.9989 159.899ZM9.14546 164.124C8.41185 165.294 8.76536 166.837 9.93506 167.571C11.1048 168.304 12.6477 167.951 13.3813 166.781L11.2634 165.453L9.14546 164.124ZM9.34466 173.905C9.95962 172.669 9.45602 171.168 8.21982 170.553C6.98363 169.938 5.48296 170.442 4.86799 171.678L7.10633 172.791L9.34466 173.905ZM1.55387 179.869C1.15409 181.19 1.90135 182.586 3.22291 182.986C4.54448 183.385 5.93991 182.638 6.33969 181.317L3.94678 180.593L1.55387 179.869ZM5.01399 188.966C5.05984 187.586 3.97835 186.43 2.5984 186.384C1.21845 186.338 0.062603 187.42 0.016745 188.8L2.51537 188.883L5.01399 188.966ZM1.12599 197.895C1.50087 199.224 2.882 199.997 4.21085 199.622C5.5397 199.247 6.31305 197.866 5.93817 196.537L3.53208 197.216L1.12599 197.895ZM9.03824 203.673C8.34148 202.481 6.81033 202.079 5.61832 202.776C4.4263 203.473 4.02482 205.004 4.72158 206.196L6.87991 204.934L9.03824 203.673ZM9.84953 213.389C10.7367 214.447 12.3135 214.585 13.3715 213.698C14.4295 212.811 14.568 211.234 13.6808 210.176L11.7652 211.782L9.84953 213.389ZM19.2817 216.114C18.285 215.159 16.7024 215.192 15.747 216.189C14.7915 217.186 14.825 218.768 15.8218 219.724L17.5518 217.919L19.2817 216.114ZM22.2566 225.434C23.3198 226.315 24.8958 226.168 25.7767 225.104C26.6577 224.041 26.5099 222.465 25.4468 221.584L23.8517 223.509L22.2566 225.434ZM31.9901 226.718C30.8838 225.892 29.3172 226.119 28.4911 227.225C27.665 228.331 27.8921 229.898 28.9984 230.724L30.4942 228.721L31.9901 226.718ZM33.9261 135L31.9608 133.455C31.077 134.579 30.2054 135.686 29.346 136.778L31.3105 138.324L33.275 139.87C34.1338 138.779 35.0065 137.671 35.8914 136.545L33.9261 135ZM26.0974 144.969L24.1259 143.431C22.3283 145.737 20.6018 147.974 18.9581 150.148L20.9524 151.655L22.9467 153.163C24.5701 151.015 26.2802 148.8 28.069 146.506L26.0974 144.969ZM15.959 158.454L13.9191 157.009C12.1939 159.444 10.596 161.812 9.14546 164.124L11.2634 165.453L13.3813 166.781C14.7709 164.565 16.3144 162.277 17.9989 159.899L15.959 158.454ZM7.10633 172.791L4.86799 171.678C3.4927 174.443 2.37184 177.165 1.55387 179.869L3.94678 180.593L6.33969 181.317C7.0613 178.931 8.06805 176.471 9.34466 173.905L7.10633 172.791ZM2.51537 188.883L0.016745 188.8C-0.0842657 191.839 0.270056 194.861 1.12599 197.895L3.53208 197.216L5.93817 196.537C5.22319 194.003 4.92992 191.495 5.01399 188.966L2.51537 188.883ZM6.87991 204.934L4.72158 206.196C6.11294 208.576 7.81884 210.967 9.84953 213.389L11.7652 211.782L13.6808 210.176C11.8041 207.938 10.2678 205.776 9.03824 203.673L6.87991 204.934ZM17.5518 217.919L15.8218 219.724C17.771 221.592 19.9136 223.493 22.2566 225.434L23.8517 223.509L25.4468 221.584C23.1845 219.71 21.1333 217.889 19.2817 216.114L17.5518 217.919ZM30.4942 228.721L28.9984 230.724C30.1195 231.561 31.2766 232.407 32.4703 233.262L33.9261 231.229L35.3818 229.197C34.2136 228.36 33.0832 227.534 31.9901 226.718L30.4942 228.721Z" fill="#50665B"/>
<path d="M57.6378 18.5667L56.3423 16.4286L52.0661 19.0198L53.3617 21.1579L55.4998 19.8623L57.6378 18.5667ZM37.5594 128.55C36.6888 129.621 36.8517 131.196 37.9234 132.066C38.995 132.937 40.5695 132.774 41.4401 131.702L39.4998 130.126L37.5594 128.55ZM43.8826 128.72C44.7611 127.655 44.6098 126.079 43.5447 125.201C42.4795 124.322 40.9039 124.474 40.0253 125.539L41.954 127.129L43.8826 128.72ZM44.9828 119.572C44.0992 120.633 44.243 122.209 45.304 123.092C46.365 123.976 47.9414 123.832 48.8249 122.771L46.9039 121.171L44.9828 119.572ZM53.7767 116.775C54.6482 115.704 54.4866 114.129 53.4157 113.258C52.3449 112.386 50.7702 112.548 49.8987 113.618L51.8377 115.197L53.7767 116.775ZM54.6587 107.603C53.8209 108.701 54.0314 110.27 55.1289 111.107C56.2264 111.945 57.7953 111.735 58.6331 110.637L56.6459 109.12L54.6587 107.603ZM63.2552 104.25C64.0307 103.107 63.7334 101.553 62.591 100.777C61.4487 100.002 59.894 100.299 59.1185 101.441L61.1868 102.846L63.2552 104.25ZM63.0965 95.0505C62.4203 96.2543 62.8479 97.7784 64.0517 98.4546C65.2555 99.1308 66.7795 98.7032 67.4558 97.4994L65.2761 96.275L63.0965 95.0505ZM70.995 90.2906C71.5276 89.0167 70.9268 87.5523 69.6529 87.0196C68.3791 86.487 66.9146 87.0879 66.382 88.3617L68.6885 89.3261L70.995 90.2906ZM68.7521 81.3703C68.4051 82.7067 69.2072 84.0713 70.5436 84.4183C71.88 84.7653 73.2447 83.9632 73.5917 82.6268L71.1719 81.9985L68.7521 81.3703ZM75.024 74.6316C75.162 73.2578 74.1602 72.0322 72.7864 71.8942C71.4126 71.7562 70.187 72.758 70.049 74.1318L72.5365 74.3817L75.024 74.6316ZM70.235 66.7726C70.2999 68.1518 71.4705 69.2173 72.8497 69.1524C74.2289 69.0876 75.2944 67.917 75.2295 66.5378L72.7323 66.6552L70.235 66.7726ZM74.324 58.5351C74.0841 57.1754 72.7873 56.2677 71.4276 56.5077C70.0679 56.7477 69.1602 58.0444 69.4001 59.4041L71.8621 58.9696L74.324 58.5351ZM67.7027 52.1197C68.0833 53.4469 69.4677 54.2143 70.7949 53.8337C72.1222 53.4532 72.8896 52.0687 72.509 50.7415L70.1058 51.4306L67.7027 52.1197ZM69.9806 43.1798C69.4904 41.8891 68.0466 41.2401 66.7558 41.7304C65.4651 42.2206 64.8161 43.6644 65.3064 44.9551L67.6435 44.0675L69.9806 43.1798ZM62.385 37.9942C62.9596 39.2497 64.4431 39.8016 65.6986 39.2271C66.9541 38.6525 67.5061 37.1689 66.9315 35.9134L64.6582 36.9538L62.385 37.9942ZM63.4428 28.8171C62.8018 27.5942 61.2908 27.1224 60.0679 27.7633C58.845 28.4043 58.3732 29.9153 59.0142 31.1382L61.2285 29.9776L63.4428 28.8171ZM55.335 24.4838C56.0281 25.6779 57.558 26.0841 58.7522 25.3909C59.9463 24.6978 60.3525 23.1679 59.6593 21.9738L57.4972 23.2288L55.335 24.4838ZM39.4998 130.126L41.4401 131.702C42.2563 130.698 43.0709 129.704 43.8826 128.72L41.954 127.129L40.0253 125.539C39.2076 126.53 38.385 127.533 37.5594 128.55L39.4998 130.126ZM46.9039 121.171L48.8249 122.771C50.5086 120.749 52.1663 118.753 53.7767 116.775L51.8377 115.197L49.8987 113.618C48.3076 115.573 46.6654 117.551 44.9828 119.572L46.9039 121.171ZM56.6459 109.12L58.6331 110.637C60.2514 108.517 61.8 106.393 63.2552 104.25L61.1868 102.846L59.1185 101.441C57.7263 103.492 56.2341 105.539 54.6587 107.603L56.6459 109.12ZM65.2761 96.275L67.4558 97.4994C68.7754 95.1504 69.9647 92.7544 70.995 90.2906L68.6885 89.3261L66.382 88.3617C65.4351 90.6263 64.3335 92.8486 63.0965 95.0505L65.2761 96.275ZM71.1719 81.9985L73.5917 82.6268C74.2612 80.048 74.747 77.3894 75.024 74.6316L72.5365 74.3817L70.049 74.1318C69.7984 76.6273 69.359 79.033 68.7521 81.3703L71.1719 81.9985ZM72.7323 66.6552L75.2295 66.5378C75.1081 63.9564 74.8108 61.2931 74.324 58.5351L71.8621 58.9696L69.4001 59.4041C69.8516 61.9622 70.1241 64.4135 70.235 66.7726L72.7323 66.6552ZM70.1058 51.4306L72.509 50.7415C71.8079 48.2965 70.9676 45.7785 69.9806 43.1798L67.6435 44.0675L65.3064 44.9551C66.2472 47.4323 67.0426 49.8178 67.7027 52.1197L70.1058 51.4306ZM64.6582 36.9538L66.9315 35.9134C65.878 33.6116 64.7167 31.2477 63.4428 28.8171L61.2285 29.9776L59.0142 31.1382C60.2494 33.495 61.3711 35.7787 62.385 37.9942L64.6582 36.9538ZM57.4972 23.2288L59.6593 21.9738C59.0082 20.852 58.3345 19.7164 57.6378 18.5667L55.4998 19.8623L53.3617 21.1579C54.0425 22.2815 54.7001 23.39 55.335 24.4838L57.4972 23.2288Z" fill="#50665B"/>
<ellipse cx="69.9998" cy="246.5" rx="15.5" ry="14.5" fill="#E8C500"/>
<ellipse cx="38.9998" cy="130.5" rx="15.5" ry="14.5" fill="#E8C500"/>
<ellipse cx="54.9998" cy="14.5" rx="15.5" ry="14.5" fill="#E8C500"/>
</svg>
