<svg width="94" height="876" viewBox="0 0 94 876" fill="none" xmlns="http://www.w3.org/2000/svg">
<path d="M54.8864 528.238C54.4766 526.919 53.0756 526.182 51.7571 526.592C50.4386 527.002 49.7019 528.403 50.1117 529.721L52.499 528.979L54.8864 528.238ZM50.388 695.967L49.0488 698.078L53.2709 700.757L54.6101 698.646L52.499 697.307L50.388 695.967ZM51.4554 533.587C51.9516 534.876 53.3984 535.518 54.6869 535.022C55.9753 534.526 56.6176 533.079 56.1213 531.79L53.7884 532.689L51.4554 533.587ZM59.2661 538.619C58.6128 537.403 57.0971 536.946 55.8807 537.6C54.6644 538.253 54.2079 539.769 54.8612 540.985L57.0637 539.802L59.2661 538.619ZM59.0624 547.891C59.8367 549.034 61.3912 549.333 62.5343 548.559C63.6774 547.784 63.9764 546.23 63.202 545.087L61.1322 546.489L59.0624 547.891ZM67.7317 551.264C66.8814 550.176 65.3103 549.984 64.2224 550.834C63.1345 551.684 62.9419 553.255 63.7921 554.343L65.7619 552.804L67.7317 551.264ZM68.7619 560.484C69.641 561.549 71.2167 561.699 72.2814 560.82C73.3461 559.941 73.4965 558.365 72.6174 557.301L70.6896 558.892L68.7619 560.484ZM77.6021 563.4C76.7421 562.32 75.1693 562.142 74.0891 563.002C73.0089 563.862 72.8304 565.435 73.6904 566.515L75.6463 564.958L77.6021 563.4ZM78.2965 572.648C79.0852 573.781 80.6433 574.06 81.7766 573.272C82.9098 572.483 83.1892 570.925 82.4005 569.792L80.3485 571.22L78.2965 572.648ZM86.6806 576.668C86.0201 575.456 84.5018 575.008 83.2893 575.669C82.0768 576.329 81.6294 577.848 82.2899 579.06L84.4852 577.864L86.6806 576.668ZM85.3989 585.85C85.8798 587.144 87.3188 587.803 88.6131 587.323C89.9073 586.842 90.5668 585.403 90.0859 584.108L87.7424 584.979L85.3989 585.85ZM92.3413 592.018C92.0673 590.665 90.7481 589.79 89.3949 590.064C88.0416 590.338 87.1668 591.657 87.4408 593.011L89.891 592.514L92.3413 592.018ZM88.3715 600.385C88.4468 601.763 89.6254 602.82 91.004 602.745C92.3827 602.669 93.4393 601.491 93.3641 600.112L90.8678 600.248L88.3715 600.385ZM93.2883 608.258C93.3837 606.881 92.3444 605.687 90.967 605.592C89.5896 605.496 88.3956 606.535 88.3002 607.913L90.7942 608.086L93.2883 608.258ZM87.3915 615.408C87.1603 616.769 88.0764 618.06 89.4376 618.292C90.7988 618.523 92.0897 617.607 92.3209 616.245L89.8562 615.827L87.3915 615.408ZM90.6519 624.107C90.9897 622.768 90.1783 621.409 88.8395 621.071C87.5008 620.733 86.1417 621.545 85.8039 622.883L88.2279 623.495L90.6519 624.107ZM83.6809 630.273C83.2598 631.588 83.9843 632.995 85.2993 633.416C86.6142 633.837 88.0215 633.113 88.4427 631.798L86.0618 631.035L83.6809 630.273ZM85.8193 639.309C86.3062 638.017 85.6535 636.574 84.3615 636.088C83.0694 635.601 81.6274 636.253 81.1405 637.545L83.4799 638.427L85.8193 639.309ZM78.2697 644.7C77.7302 645.971 78.3231 647.438 79.5941 647.978C80.865 648.518 82.3327 647.925 82.8722 646.654L80.571 645.677L78.2697 644.7ZM79.661 653.864C80.2435 652.612 79.7009 651.125 78.4491 650.543C77.1973 649.96 75.7102 650.503 75.1277 651.755L77.3944 652.809L79.661 653.864ZM71.7511 658.74C71.1329 659.974 71.6325 661.476 72.8671 662.094C74.1017 662.713 75.6037 662.213 76.2219 660.978L73.9865 659.859L71.7511 658.74ZM72.5739 668.039C73.2223 666.82 72.7598 665.306 71.5408 664.658C70.3219 664.009 68.808 664.472 68.1596 665.691L70.3667 666.865L72.5739 668.039ZM64.4388 672.507C63.7649 673.712 64.1955 675.236 65.4005 675.91C66.6056 676.583 68.1288 676.153 68.8027 674.948L66.6208 673.728L64.4388 672.507ZM64.9205 681.74C65.6163 680.548 65.2135 679.017 64.021 678.321C62.8284 677.625 61.2976 678.028 60.6018 679.221L62.7611 680.481L64.9205 681.74ZM56.5817 685.981C55.8666 687.163 56.2444 688.7 57.4255 689.415C58.6066 690.13 60.1438 689.752 60.8589 688.571L58.7203 687.276L56.5817 685.981ZM56.7648 695.224C57.4965 694.053 57.1406 692.511 55.9697 691.779C54.7989 691.047 53.2565 691.403 52.5248 692.574L54.6448 693.899L56.7648 695.224ZM52.499 528.979L50.1117 529.721C50.5236 531.047 50.9729 532.334 51.4554 533.587L53.7884 532.689L56.1213 531.79C55.6777 530.638 55.2649 529.455 54.8864 528.238L52.499 528.979ZM57.0637 539.802L54.8612 540.985C56.1633 543.409 57.5781 545.7 59.0624 547.891L61.1322 546.489L63.202 545.087C61.7977 543.014 60.4749 540.87 59.2661 538.619L57.0637 539.802ZM65.7619 552.804L63.7921 554.343C65.4322 556.442 67.108 558.481 68.7619 560.484L70.6896 558.892L72.6174 557.301C70.9641 555.298 69.3264 553.305 67.7317 551.264L65.7619 552.804ZM75.6463 564.958L73.6904 566.515C75.3001 568.537 76.8472 570.565 78.2965 572.648L80.3485 571.22L82.4005 569.792C80.8697 567.592 79.2522 565.473 77.6021 563.4L75.6463 564.958ZM84.4852 577.864L82.2899 579.06C83.468 581.223 84.516 583.473 85.3989 585.85L87.7424 584.979L90.0859 584.108C89.1114 581.485 87.9605 579.018 86.6806 576.668L84.4852 577.864ZM89.891 592.514L87.4408 593.011C87.9096 595.326 88.2291 597.775 88.3715 600.385L90.8678 600.248L93.3641 600.112C93.2087 597.265 92.859 594.575 92.3413 592.018L89.891 592.514ZM90.7942 608.086L88.3002 607.913C88.136 610.283 87.8384 612.777 87.3915 615.408L89.8562 615.827L92.3209 616.245C92.7938 613.461 93.112 610.803 93.2883 608.258L90.7942 608.086ZM88.2279 623.495L85.8039 622.883C85.2081 625.245 84.5033 627.705 83.6809 630.273L86.0618 631.035L88.4427 631.798C89.2949 629.137 90.0289 626.576 90.6519 624.107L88.2279 623.495ZM83.4799 638.427L81.1405 637.545C80.2718 639.851 79.3165 642.234 78.2697 644.7L80.571 645.677L82.8722 646.654C83.9442 644.128 84.9252 641.681 85.8193 639.309L83.4799 638.427ZM77.3944 652.809L75.1277 651.755C74.0745 654.018 72.95 656.345 71.7511 658.74L73.9865 659.859L76.2219 660.978C77.4411 658.544 78.5866 656.173 79.661 653.864L77.3944 652.809ZM70.3667 666.865L68.1596 665.691C66.9796 667.909 65.74 670.181 64.4388 672.507L66.6208 673.728L68.8027 674.948C70.1203 672.592 71.3767 670.29 72.5739 668.039L70.3667 666.865ZM62.7611 680.481L60.6018 679.221C59.3145 681.427 57.975 683.68 56.5817 685.981L58.7203 687.276L60.8589 688.571C62.2656 686.248 63.619 683.971 64.9205 681.74L62.7611 680.481ZM54.6448 693.899L52.5248 692.574C51.8246 693.694 51.1124 694.825 50.388 695.967L52.499 697.307L54.6101 698.646C55.3404 697.495 56.0586 696.354 56.7648 695.224L54.6448 693.899Z" fill="#50665B"/>
<path d="M54.572 418.158C55.3438 417.013 55.0415 415.46 53.8966 414.688C52.7518 413.916 51.198 414.218 50.4262 415.363L52.4991 416.761L54.572 418.158ZM50.8964 530.898L52.8152 532.5L56.0205 528.663L54.1017 527.06L52.4991 528.979L50.8964 530.898ZM48.1152 418.788C47.3428 419.933 47.6443 421.487 48.7887 422.259C49.9332 423.031 51.4871 422.73 52.2595 421.586L50.1874 420.187L48.1152 418.788ZM47.666 428.406C48.4351 427.259 48.1289 425.706 46.9822 424.937C45.8355 424.168 44.2824 424.474 43.5134 425.621L45.5897 427.013L47.666 428.406ZM38.953 432.485C38.1956 433.64 38.5175 435.19 39.6719 435.947C40.8264 436.704 42.3762 436.382 43.1336 435.228L41.0433 433.857L38.953 432.485ZM38.7028 442.118C39.4366 440.948 39.0833 439.405 37.9138 438.672C36.7442 437.938 35.2012 438.291 34.4674 439.461L36.5851 440.789L38.7028 442.118ZM30.1602 446.576C29.4677 447.771 29.8747 449.3 31.0692 449.993C32.2637 450.685 33.7934 450.278 34.4859 449.084L32.323 447.83L30.1602 446.576ZM30.6151 456.182C31.2388 454.95 30.7458 453.446 29.514 452.822C28.2822 452.198 26.778 452.691 26.1543 453.923L28.3847 455.052L30.6151 456.182ZM22.6553 461.605C22.1433 462.887 22.7678 464.341 24.05 464.853C25.3323 465.365 26.7869 464.741 27.2988 463.459L24.9771 462.532L22.6553 461.605ZM24.8394 470.95C25.1751 469.611 24.3614 468.253 23.0221 467.917C21.6828 467.582 20.325 468.395 19.9894 469.734L22.4144 470.342L24.8394 470.95ZM18.642 478.312C18.5618 479.69 19.6142 480.873 20.9926 480.953C22.371 481.033 23.5534 479.981 23.6336 478.602L21.1378 478.457L18.642 478.312ZM24.0291 486.243C23.8036 484.881 22.5166 483.959 21.1544 484.185C19.7922 484.41 18.8708 485.697 19.0963 487.059L21.5627 486.651L24.0291 486.243ZM21.4496 495.485C21.9556 496.77 23.4073 497.401 24.6919 496.895C25.9765 496.389 26.6077 494.937 26.1016 493.652L23.7756 494.569L21.4496 495.485ZM29.5776 500.62C28.8659 499.436 27.3298 499.054 26.1466 499.766C24.9635 500.478 24.5814 502.014 25.2931 503.197L27.4354 501.908L29.5776 500.62ZM30.1389 510.203C30.9877 511.292 32.5586 511.487 33.6476 510.638C34.7366 509.789 34.9313 508.218 34.0825 507.129L32.1107 508.666L30.1389 510.203ZM39.2951 513.224C38.356 512.212 36.7742 512.153 35.762 513.092C34.7499 514.031 34.6907 515.613 35.6299 516.625L37.4625 514.925L39.2951 513.224ZM41.5274 522.579C42.5275 523.531 44.1099 523.492 45.0618 522.492C46.0137 521.492 45.9747 519.91 44.9746 518.958L43.251 520.769L41.5274 522.579ZM50.9753 524.4C49.9324 523.495 48.3535 523.606 47.4486 524.649C46.5436 525.692 46.6554 527.271 47.6983 528.176L49.3368 526.288L50.9753 524.4ZM52.4991 416.761L50.4262 415.363C49.6464 416.52 48.876 417.661 48.1152 418.788L50.1874 420.187L52.2595 421.586C53.0201 420.459 53.7913 419.316 54.572 418.158L52.4991 416.761ZM45.5897 427.013L43.5134 425.621C41.9384 427.969 40.4157 430.256 38.953 432.485L41.0433 433.857L43.1336 435.228C44.5839 433.018 46.0964 430.746 47.666 428.406L45.5897 427.013ZM36.5851 440.789L34.4674 439.461C32.9419 441.892 31.5024 444.261 30.1602 446.576L32.323 447.83L34.4859 449.084C35.7929 446.829 37.2012 444.511 38.7028 442.118L36.5851 440.789ZM28.3847 455.052L26.1543 453.923C24.8336 456.531 23.6604 459.087 22.6553 461.605L24.9771 462.532L27.2988 463.459C28.2399 461.102 29.3491 458.682 30.6151 456.182L28.3847 455.052ZM22.4144 470.342L19.9894 469.734C19.2687 472.611 18.8077 475.462 18.642 478.312L21.1378 478.457L23.6336 478.602C23.7792 476.098 24.1862 473.557 24.8394 470.95L22.4144 470.342ZM21.5627 486.651L19.0963 487.059C19.5607 489.865 20.339 492.666 21.4496 495.485L23.7756 494.569L26.1016 493.652C25.1144 491.147 24.4335 488.686 24.0291 486.243L21.5627 486.651ZM27.4354 501.908L25.2931 503.197C26.6819 505.506 28.2945 507.836 30.1389 510.203L32.1107 508.666L34.0825 507.129C32.3476 504.903 30.8517 502.738 29.5776 500.62L27.4354 501.908ZM37.4625 514.925L35.6299 516.625C37.4389 518.575 39.403 520.557 41.5274 522.579L43.251 520.769L44.9746 518.958C42.9172 516.999 41.0266 515.09 39.2951 513.224L37.4625 514.925ZM49.3368 526.288L47.6983 528.176C48.7336 529.074 49.7995 529.982 50.8964 530.898L52.4991 528.979L54.1017 527.06C53.0278 526.163 51.9859 525.277 50.9753 524.4L49.3368 526.288Z" fill="#50665B"/>
<path d="M70.7174 287.024L69.5647 284.806L65.1279 287.111L66.2806 289.329L68.499 288.177L70.7174 287.024ZM50.4477 415.332C49.6585 416.465 49.9371 418.023 51.07 418.812C52.2029 419.601 53.7611 419.323 54.5503 418.19L52.499 416.761L50.4477 415.332ZM56.7862 415.004C57.5829 413.877 57.3146 412.317 56.1869 411.52C55.0593 410.723 53.4993 410.991 52.7026 412.119L54.7444 413.562L56.7862 415.004ZM57.2415 405.743C56.4389 406.867 56.6989 408.428 57.8224 409.231C58.9459 410.033 60.5073 409.773 61.3099 408.65L59.2757 407.197L57.2415 405.743ZM65.8451 402.268C66.6395 401.139 66.368 399.579 65.2387 398.785C64.1095 397.991 62.55 398.262 61.7556 399.391L63.8003 400.83L65.8451 402.268ZM66.1543 393.006C65.3853 394.153 65.6916 395.706 66.8384 396.475C67.9851 397.244 69.5381 396.938 70.3071 395.791L68.2307 394.399L66.1543 393.006ZM74.5894 389.142C75.3117 387.965 74.9434 386.426 73.7667 385.704C72.59 384.981 71.0506 385.35 70.3282 386.526L72.4588 387.834L74.5894 389.142ZM74.1477 379.89C73.4973 381.108 73.9575 382.623 75.1755 383.273C76.3935 383.923 77.908 383.463 78.5583 382.245L76.353 381.068L74.1477 379.89ZM82.053 375.04C82.6026 373.773 82.0213 372.301 80.7547 371.751C79.4881 371.202 78.0158 371.783 77.4662 373.049L79.7596 374.045L82.053 375.04ZM80.1346 365.979C79.714 367.294 80.4391 368.701 81.7542 369.122C83.0693 369.543 84.4763 368.817 84.8969 367.502L82.5158 366.741L80.1346 365.979ZM86.9287 359.678C87.1993 358.324 86.321 357.007 84.967 356.736C83.6131 356.466 82.2962 357.344 82.0257 358.698L84.4772 359.188L86.9287 359.678ZM83.0687 351.257C82.9562 352.633 83.9805 353.84 85.3566 353.953C86.7327 354.065 87.9395 353.041 88.0521 351.665L85.5604 351.461L83.0687 351.257ZM88.2618 343.587C88.223 342.206 87.0726 341.119 85.6924 341.158C84.3123 341.197 83.2249 342.347 83.2638 343.727L85.7628 343.657L88.2618 343.587ZM82.6717 336.183C82.8454 337.553 84.0966 338.522 85.4664 338.349C86.8361 338.175 87.8057 336.924 87.6319 335.554L85.1518 335.869L82.6717 336.183ZM86.2858 327.672C85.9981 326.322 84.6701 325.46 83.3197 325.748C81.9693 326.036 81.1078 327.364 81.3955 328.714L83.8406 328.193L86.2858 327.672ZM79.534 321.308C79.9161 322.635 81.3014 323.4 82.6282 323.018C83.955 322.636 84.7208 321.251 84.3387 319.924L81.9363 320.616L79.534 321.308ZM81.9103 312.359C81.4511 311.057 80.0232 310.374 78.7211 310.833C77.419 311.292 76.7357 312.72 77.195 314.022L79.5526 313.191L81.9103 312.359ZM74.4444 306.811C74.967 308.089 76.4267 308.701 77.7046 308.178C78.9826 307.656 79.5949 306.196 79.0723 304.918L76.7583 305.864L74.4444 306.811ZM75.9371 297.689C75.3627 296.433 73.8793 295.881 72.6237 296.456C71.3681 297.03 70.816 298.514 71.3904 299.769L73.6638 298.729L75.9371 297.689ZM68.058 292.815C68.6755 294.05 70.1772 294.55 71.4122 293.933C72.6471 293.315 73.1476 291.814 72.53 290.579L70.294 291.697L68.058 292.815ZM52.499 416.761L54.5503 418.19C55.2974 417.117 56.043 416.056 56.7862 415.004L54.7444 413.562L52.7026 412.119C51.9543 413.178 51.2022 414.249 50.4477 415.332L52.499 416.761ZM59.2757 407.197L61.3099 408.65C62.8474 406.498 64.3647 404.372 65.8451 402.268L63.8003 400.83L61.7556 399.391C60.2872 401.479 58.7801 403.59 57.2415 405.743L59.2757 407.197ZM68.2307 394.399L70.3071 395.791C71.7924 393.576 73.2254 391.364 74.5894 389.142L72.4588 387.834L70.3282 386.526C69.0066 388.679 67.6111 390.834 66.1543 393.006L68.2307 394.399ZM76.353 381.068L78.5583 382.245C79.8217 379.879 80.993 377.483 82.053 375.04L79.7596 374.045L77.4662 373.049C76.4662 375.354 75.3553 377.629 74.1477 379.89L76.353 381.068ZM82.5158 366.741L84.8969 367.502C85.7099 364.961 86.3932 362.358 86.9287 359.678L84.4772 359.188L82.0257 358.698C81.5285 361.186 80.8933 363.607 80.1346 365.979L82.5158 366.741ZM85.5604 351.461L88.0521 351.665C88.266 349.05 88.34 346.362 88.2618 343.587L85.7628 343.657L83.2638 343.727C83.3369 346.322 83.2675 348.827 83.0687 351.257L85.5604 351.461ZM85.1518 335.869L87.6319 335.554C87.3082 333.002 86.8619 330.377 86.2858 327.672L83.8406 328.193L81.3955 328.714C81.9439 331.289 82.3663 333.775 82.6717 336.183L85.1518 335.869ZM81.9363 320.616L84.3387 319.924C83.6316 317.469 82.8237 314.949 81.9103 312.359L79.5526 313.191L77.195 314.022C78.0776 316.525 78.8554 318.952 79.534 321.308L81.9363 320.616ZM76.7583 305.864L79.0723 304.918C78.1104 302.566 77.0664 300.157 75.9371 297.689L73.6638 298.729L71.3904 299.769C72.4927 302.179 73.5095 304.525 74.4444 306.811L76.7583 305.864ZM70.294 291.697L72.53 290.579C71.9441 289.407 71.34 288.222 70.7174 287.024L68.499 288.177L66.2806 289.329C66.8916 290.505 67.4839 291.667 68.058 292.815L70.294 291.697Z" fill="#50665B"/>
<path d="M22.6056 156.263C23.3491 155.1 23.0087 153.554 21.8452 152.81C20.6818 152.067 19.1359 152.407 18.3924 153.571L20.499 154.917L22.6056 156.263ZM66.231 289.228L67.2825 291.496L71.8187 289.393L70.7671 287.125L68.499 288.177L66.231 289.228ZM16.1492 157.166C15.4315 158.346 15.8058 159.884 16.9854 160.601C18.1649 161.319 19.7029 160.945 20.4206 159.765L18.2849 158.466L16.1492 157.166ZM16.4091 166.728C17.0675 165.515 16.6174 163.997 15.4038 163.339C14.1901 162.68 12.6726 163.131 12.0142 164.344L14.2117 165.536L16.4091 166.728ZM8.26448 171.768C7.68095 173.019 8.22232 174.506 9.47367 175.09C10.725 175.673 12.2125 175.132 12.796 173.881L10.5302 172.824L8.26448 171.768ZM9.68875 181.229C10.1763 179.937 9.52445 178.494 8.2327 178.007C6.94095 177.519 5.49851 178.171 5.01091 179.463L7.34983 180.346L9.68875 181.229ZM2.40953 187.433C2.04592 188.765 2.83094 190.14 4.16292 190.504C5.49489 190.867 6.86943 190.082 7.23303 188.75L4.82128 188.092L2.40953 187.433ZM5.60303 196.413C5.80684 195.047 4.86503 193.775 3.49944 193.571C2.13385 193.367 0.861609 194.309 0.657803 195.675L3.13042 196.044L5.60303 196.413ZM4.26769e-05 204.208C-0.00171089 205.589 1.11615 206.709 2.49687 206.711C3.87758 206.713 4.99829 205.595 5.00004 204.214L2.50004 204.211L4.26769e-05 204.208ZM5.63336 211.906C5.40121 210.545 4.10966 209.629 2.7486 209.862C1.38755 210.094 0.472394 211.385 0.704551 212.746L3.16896 212.326L5.63336 211.906ZM2.90893 221.061C3.3814 222.359 4.81613 223.028 6.11349 222.555C7.41085 222.083 8.07955 220.648 7.60707 219.351L5.258 220.206L2.90893 221.061ZM10.8741 226.369C10.1901 225.17 8.66339 224.752 7.46397 225.436C6.26455 226.12 5.84666 227.646 6.53059 228.846L8.70233 227.607L10.8741 226.369ZM11.2757 235.914C12.1211 237.005 13.6913 237.205 14.783 236.36C15.8746 235.514 16.0742 233.944 15.2288 232.852L13.2522 234.383L11.2757 235.914ZM20.4107 238.816C19.4534 237.821 17.8708 237.79 16.8758 238.747C15.8807 239.704 15.8501 241.287 16.8073 242.282L18.609 240.549L20.4107 238.816ZM22.8407 248.071C23.87 248.991 25.4504 248.903 26.3707 247.874C27.291 246.844 27.2026 245.264 26.1734 244.344L24.507 246.207L22.8407 248.071ZM32.3137 249.555C31.2422 248.684 29.6676 248.847 28.7969 249.919C27.9261 250.99 28.0889 252.565 29.1604 253.435L30.737 251.495L32.3137 249.555ZM35.6136 258.542C36.704 259.389 38.2746 259.192 39.1216 258.101C39.9687 257.011 39.7715 255.44 38.6811 254.593L37.1474 256.568L35.6136 258.542ZM45.1462 259.608C44.0582 258.758 42.487 258.951 41.637 260.039C40.787 261.127 40.9799 262.698 42.0679 263.548L43.607 261.578L45.1462 259.608ZM48.3849 268.611C49.4472 269.493 51.0233 269.347 51.9054 268.285C52.7875 267.223 52.6414 265.647 51.5792 264.765L49.9821 266.688L48.3849 268.611ZM57.8287 270.262C56.8242 269.315 55.242 269.361 54.2947 270.366C53.3475 271.37 53.3939 272.952 54.3985 273.9L56.1136 272.081L57.8287 270.262ZM59.8739 279.598C60.771 280.648 62.3491 280.772 63.3987 279.874C64.4482 278.977 64.5719 277.399 63.6748 276.35L61.7743 277.974L59.8739 279.598ZM68.7232 283.283C68.0118 282.1 66.4758 281.717 65.2925 282.429C64.1092 283.14 63.7266 284.676 64.438 285.859L66.5806 284.571L68.7232 283.283ZM20.499 154.917L18.3924 153.571C17.6175 154.783 16.8699 155.982 16.1492 157.166L18.2849 158.466L20.4206 159.765C21.1217 158.613 21.8498 157.446 22.6056 156.263L20.499 154.917ZM14.2117 165.536L12.0142 164.344C10.636 166.885 9.38802 169.358 8.26448 171.768L10.5302 172.824L12.796 173.881C13.8742 171.569 15.0762 169.186 16.4091 166.728L14.2117 165.536ZM7.34983 180.346L5.01091 179.463C3.97596 182.205 3.11212 184.86 2.40953 187.433L4.82128 188.092L7.23303 188.75C7.89153 186.338 8.70573 183.833 9.68875 181.229L7.34983 180.346ZM3.13042 196.044L0.657803 195.675C0.216483 198.632 0.0035162 201.473 4.26769e-05 204.208L2.50004 204.211L5.00004 204.214C5.00319 201.735 5.19617 199.139 5.60303 196.413L3.13042 196.044ZM3.16896 212.326L0.704551 212.746C1.20064 215.655 1.94745 218.421 2.90893 221.061L5.258 220.206L7.60707 219.351C6.7458 216.986 6.07759 214.51 5.63336 211.906L3.16896 212.326ZM8.70233 227.607L6.53059 228.846C7.94185 231.321 9.53818 233.67 11.2757 235.914L13.2522 234.383L15.2288 232.852C13.6181 230.773 12.1562 228.618 10.8741 226.369L8.70233 227.607ZM18.609 240.549L16.8073 242.282C18.7338 244.285 20.758 246.209 22.8407 248.071L24.507 246.207L26.1734 244.344C24.1653 242.548 22.2343 240.711 20.4107 238.816L18.609 240.549ZM30.737 251.495L29.1604 253.435C31.2966 255.171 33.4612 256.87 35.6136 258.542L37.1474 256.568L38.6811 254.593C36.5391 252.929 34.4079 251.257 32.3137 249.555L30.737 251.495ZM43.607 261.578L42.0679 263.548C44.232 265.239 46.3473 266.919 48.3849 268.611L49.9821 266.688L51.5792 264.765C49.4873 263.028 47.3285 261.313 45.1462 259.608L43.607 261.578ZM56.1136 272.081L54.3985 273.9C56.3788 275.767 58.2162 277.659 59.8739 279.598L61.7743 277.974L63.6748 276.35C61.8768 274.246 59.9099 272.224 57.8287 270.262L56.1136 272.081ZM66.5806 284.571L64.438 285.859C65.1014 286.963 65.7007 288.085 66.231 289.228L68.499 288.177L70.7671 287.125C70.1569 285.809 69.4725 284.529 68.7232 283.283L66.5806 284.571Z" fill="#50665B"/>
<ellipse cx="62" cy="544.008" rx="15.5" ry="14.5" fill="#E8C500"/>
<path d="M54.9605 697.744L55.3982 695.283L50.4754 694.408L50.0377 696.869L52.4991 697.307L54.9605 697.744ZM79.9576 875.948C81.3054 876.248 82.6409 875.398 82.9405 874.051L87.8234 852.087C88.123 850.739 87.2733 849.403 85.9255 849.104C84.5777 848.804 83.2422 849.654 82.9425 851.002L78.6022 870.525L59.0789 866.185C57.7311 865.885 56.3955 866.735 56.0959 868.083C55.7963 869.43 56.646 870.766 57.9938 871.066L79.9576 875.948ZM49.1811 700.444C48.7863 701.767 49.5388 703.16 50.8618 703.554C52.1849 703.949 53.5775 703.197 53.9723 701.874L51.5767 701.159L49.1811 700.444ZM50.9659 709.593C51.5469 708.341 51.0027 706.854 49.7502 706.273C48.4977 705.692 47.0113 706.236 46.4302 707.489L48.698 708.541L50.9659 709.593ZM42.9419 714.489C42.3102 715.717 42.7934 717.224 44.0211 717.856C45.2488 718.488 46.7562 718.005 47.3879 716.777L45.1649 715.633L42.9419 714.489ZM43.8726 723.802C44.4642 722.554 43.9324 721.063 42.6848 720.472C41.4373 719.88 39.9464 720.412 39.3548 721.66L41.6137 722.731L43.8726 723.802ZM36.1485 729.114C35.6571 730.405 36.3047 731.849 37.595 732.34C38.8853 732.832 40.3297 732.184 40.8211 730.894L38.4848 730.004L36.1485 729.114ZM38.4596 738.183C38.8147 736.848 38.021 735.479 36.6868 735.124C35.3525 734.768 33.983 735.562 33.6278 736.896L36.0437 737.54L38.4596 738.183ZM31.9603 744.928C31.7548 746.293 32.6952 747.567 34.0605 747.772C35.4258 747.978 36.6992 747.037 36.9046 745.672L34.4324 745.3L31.9603 744.928ZM36.1711 753.316C36.2314 751.936 35.162 750.769 33.7826 750.709C32.4032 750.649 31.2361 751.718 31.1759 753.098L33.6735 753.207L36.1711 753.316ZM31.2091 761.221C31.2777 762.6 32.4512 763.662 33.8302 763.593C35.2092 763.525 36.2715 762.351 36.2029 760.972L33.706 761.096L31.2091 761.221ZM36.91 768.697C36.7302 767.328 35.4747 766.364 34.1058 766.543C32.7368 766.723 31.7728 767.979 31.9525 769.348L34.4313 769.022L36.91 768.697ZM33.2825 777.313C33.5547 778.666 34.8727 779.543 36.2263 779.271C37.5799 778.999 38.4566 777.681 38.1844 776.327L35.7335 776.82L33.2825 777.313ZM39.9383 783.89C39.5891 782.554 38.2231 781.754 36.8873 782.103C35.5515 782.452 34.7516 783.818 35.1008 785.154L37.5195 784.522L39.9383 783.89ZM37.3274 792.882C37.7409 794.199 39.144 794.932 40.4613 794.518C41.7787 794.105 42.5114 792.702 42.0979 791.384L39.7126 792.133L37.3274 792.882ZM44.5979 798.795C44.1304 797.496 42.6982 796.822 41.399 797.29C40.0999 797.757 39.4257 799.189 39.8933 800.488L42.2456 799.642L44.5979 798.795ZM42.7451 807.982C43.2585 809.264 44.7137 809.887 45.9954 809.374C47.2771 808.86 47.9 807.405 47.3867 806.123L45.0659 807.053L42.7451 807.982ZM50.4263 813.379C49.8737 812.114 48.4 811.536 47.1347 812.089C45.8694 812.641 45.2916 814.115 45.8442 815.38L48.1352 814.38L50.4263 813.379ZM49.1641 822.705C49.7506 823.955 51.2393 824.493 52.4893 823.906C53.7392 823.32 54.277 821.831 53.6905 820.581L51.4273 821.643L49.1641 822.705ZM57.1037 827.634C56.488 826.398 54.987 825.895 53.7512 826.511C52.5154 827.127 52.0128 828.628 52.6286 829.863L54.8661 828.748L57.1037 827.634ZM56.2448 836.931C56.8863 838.154 58.3974 838.625 59.6201 837.984C60.8427 837.342 61.3139 835.831 60.6725 834.608L58.4586 835.77L56.2448 836.931ZM64.4125 841.574C63.7482 840.364 62.2284 839.921 61.018 840.586C59.8077 841.25 59.365 842.77 60.0293 843.98L62.2209 842.777L64.4125 841.574ZM63.9441 850.969C64.6289 852.168 66.1559 852.585 67.3549 851.9C68.5538 851.216 68.9707 849.688 68.2859 848.49L66.115 849.729L63.9441 850.969ZM72.2162 855.25C71.5134 854.062 69.9802 853.668 68.7917 854.371C67.6033 855.073 67.2095 856.607 67.9123 857.795L70.0642 856.523L72.2162 855.25ZM72.0443 864.671C72.7636 865.85 74.3021 866.222 75.4807 865.503C76.6592 864.783 77.0315 863.245 76.3122 862.066L74.1783 863.369L72.0443 864.671ZM80.4481 868.746C79.714 867.577 78.1709 867.224 77.0015 867.958C75.8321 868.692 75.4792 870.235 76.2133 871.405L78.3307 870.076L80.4481 868.746ZM52.4991 697.307L50.0377 696.869C49.8245 698.068 49.5355 699.256 49.1811 700.444L51.5767 701.159L53.9723 701.874C54.3751 700.524 54.7105 699.15 54.9605 697.744L52.4991 697.307ZM48.698 708.541L46.4302 707.489C45.3802 709.752 44.1977 712.049 42.9419 714.489L45.1649 715.633L47.3879 716.777C48.6334 714.356 49.8649 711.966 50.9659 709.593L48.698 708.541ZM41.6137 722.731L39.3548 721.66C38.243 724.004 37.1529 726.477 36.1485 729.114L38.4848 730.004L40.8211 730.894C41.7674 728.409 42.8017 726.06 43.8726 723.802L41.6137 722.731ZM36.0437 737.54L33.6278 736.896C32.9549 739.425 32.3867 742.094 31.9603 744.928L34.4324 745.3L36.9046 745.672C37.3024 743.028 37.832 740.54 38.4596 738.183L36.0437 737.54ZM33.6735 753.207L31.1759 753.098C31.0631 755.679 31.0678 758.382 31.2091 761.221L33.706 761.096L36.2029 760.972C36.0692 758.286 36.0653 755.739 36.1711 753.316L33.6735 753.207ZM34.4313 769.022L31.9525 769.348C32.2878 771.901 32.7277 774.553 33.2825 777.313L35.7335 776.82L38.1844 776.327C37.651 773.674 37.23 771.133 36.91 768.697L34.4313 769.022ZM37.5195 784.522L35.1008 785.154C35.7525 787.648 36.4926 790.222 37.3274 792.882L39.7126 792.133L42.0979 791.384C41.2863 788.798 40.5687 786.302 39.9383 783.89L37.5195 784.522ZM42.2456 799.642L39.8933 800.488C40.7679 802.919 41.7172 805.416 42.7451 807.982L45.0659 807.053L47.3867 806.123C46.3799 803.61 45.4517 801.168 44.5979 798.795L42.2456 799.642ZM48.1352 814.38L45.8442 815.38C46.8855 817.765 47.9912 820.206 49.1641 822.705L51.4273 821.643L53.6905 820.581C52.536 818.121 51.4489 815.721 50.4263 813.379L48.1352 814.38ZM54.8661 828.748L52.6286 829.863C53.7787 832.172 54.9835 834.527 56.2448 836.931L58.4586 835.77L60.6725 834.608C59.4268 832.234 58.2379 829.91 57.1037 827.634L54.8661 828.748ZM62.2209 842.777L60.0293 843.98C61.2847 846.267 62.5892 848.597 63.9441 850.969L66.115 849.729L68.2859 848.49C66.9446 846.141 65.654 843.836 64.4125 841.574L62.2209 842.777ZM70.0642 856.523L67.9123 857.795C69.2454 860.05 70.6224 862.341 72.0443 864.671L74.1783 863.369L76.3122 862.066C74.9021 859.756 73.5371 857.484 72.2162 855.25L70.0642 856.523ZM78.3307 870.076L76.2133 871.405C76.9287 872.544 77.6545 873.693 78.3908 874.85L80.5001 873.508L82.6094 872.166C81.8784 871.017 81.1581 869.877 80.4481 868.746L78.3307 870.076Z" fill="#50665B"/>
<path d="M28.4753 1.97542L26.9429 0.000128984L22.9923 3.06492L24.5247 5.04021L26.5 3.50781L28.4753 1.97542ZM19.31 152.718C18.0954 153.375 17.6432 154.892 18.2999 156.106C18.9566 157.321 20.4735 157.773 21.6881 157.117L20.499 154.917L19.31 152.718ZM25.2418 155.266C26.4752 154.646 26.9722 153.143 26.3518 151.91C25.7314 150.676 24.2285 150.179 22.9951 150.799L24.1184 153.033L25.2418 155.266ZM30.4321 147.237C29.1786 147.816 28.6318 149.302 29.2108 150.555C29.7897 151.809 31.2752 152.355 32.5286 151.776L31.4804 149.507L30.4321 147.237ZM39.9493 148.384C41.2046 147.809 41.7559 146.326 41.1808 145.07C40.6057 143.815 39.1219 143.264 37.8667 143.839L38.908 146.112L39.9493 148.384ZM45.197 140.386C43.9573 140.994 43.4451 142.492 44.053 143.731C44.6608 144.971 46.1586 145.483 47.3983 144.875L46.2976 142.631L45.197 140.386ZM54.7636 141.017C55.965 140.336 56.3874 138.811 55.7071 137.609C55.0267 136.408 53.5012 135.985 52.2998 136.666L53.5317 138.841L54.7636 141.017ZM58.9944 132.453C57.8677 133.251 57.6011 134.811 58.3991 135.938C59.197 137.065 60.7573 137.331 61.8841 136.533L60.4393 134.493L58.9944 132.453ZM68.4778 131.107C69.4689 130.146 69.493 128.563 68.5316 127.572C67.5703 126.581 65.9875 126.557 64.9965 127.519L66.7372 129.313L68.4778 131.107ZM69.9002 121.692C69.1329 122.84 69.4413 124.393 70.5892 125.16C71.737 125.927 73.2896 125.619 74.0569 124.471L71.9786 123.082L69.9002 121.692ZM77.9984 116.666C78.4646 115.367 77.7889 113.935 76.4893 113.469C75.1897 113.003 73.7582 113.678 73.292 114.978L75.6452 115.822L77.9984 116.666ZM74.9884 107.612C74.8298 108.983 75.8131 110.224 77.1847 110.382C78.5562 110.541 79.7967 109.558 79.9553 108.186L77.4718 107.899L74.9884 107.612ZM80.1258 99.5725C80.0329 98.1949 78.8408 97.1535 77.4632 97.2464C76.0857 97.3394 75.0442 98.5314 75.1372 99.909L77.6315 99.7408L80.1258 99.5725ZM74.0629 92.1842C74.3395 93.5369 75.6604 94.4093 77.0131 94.1327C78.3658 93.8561 79.2382 92.5352 78.9615 91.1825L76.5122 91.6834L74.0629 92.1842ZM76.8357 82.9905C76.426 81.672 75.0251 80.9351 73.7065 81.3448C72.388 81.7544 71.6512 83.1554 72.0608 84.474L74.4483 83.7322L76.8357 82.9905ZM69.4111 76.9796C69.9168 78.2643 71.3683 78.8958 72.6531 78.3901C73.9378 77.8843 74.5693 76.4328 74.0636 75.1481L71.7373 76.0638L69.4111 76.9796ZM70.7986 67.5255C70.2205 66.2716 68.7354 65.7238 67.4816 66.302C66.2277 66.8801 65.6799 68.3652 66.2581 69.619L68.5284 68.5723L70.7986 67.5255ZM62.7108 62.3776C63.345 63.604 64.8534 64.0841 66.0798 63.4498C67.3062 62.8156 67.7863 61.3072 67.152 60.0808L64.9314 61.2292L62.7108 62.3776ZM63.2064 52.7934C62.5275 51.5911 61.0026 51.1667 59.8002 51.8456C58.5979 52.5244 58.1736 54.0494 58.8524 55.2517L61.0294 54.0225L63.2064 52.7934ZM54.8023 48.3304C55.5169 49.5118 57.0539 49.8902 58.2353 49.1757C59.4168 48.4611 59.7952 46.9241 59.0806 45.7427L56.9415 47.0365L54.8023 48.3304ZM54.7529 38.7936C54.0086 37.6307 52.4625 37.2913 51.2996 38.0356C50.1367 38.7799 49.7973 40.326 50.5416 41.4889L52.6472 40.1413L54.7529 38.7936ZM46.0782 34.6839C46.8477 35.8303 48.4008 36.1359 49.5472 35.3664C50.6936 34.5969 50.9992 33.0438 50.2297 31.8974L48.1539 33.2907L46.0782 34.6839ZM45.5599 25.0834C44.7689 23.9518 43.2102 23.6756 42.0786 24.4666C40.9469 25.2576 40.6708 26.8163 41.4618 27.9479L43.5108 26.5157L45.5599 25.0834ZM36.8049 21.4019C37.6142 22.5206 39.1771 22.7714 40.2958 21.9621C41.4145 21.1528 41.6653 19.5899 40.856 18.4712L38.8304 19.9365L36.8049 21.4019ZM35.9616 11.8109C35.1361 10.7041 33.5697 10.4762 32.463 11.3017C31.3562 12.1273 31.1283 13.6937 31.9538 14.8004L33.9577 13.3056L35.9616 11.8109ZM27.0771 8.35081C27.9167 9.44687 29.4859 9.65473 30.582 8.81507C31.678 7.97542 31.8859 6.40621 31.0462 5.31015L29.0616 6.83048L27.0771 8.35081ZM20.499 154.917L21.6881 157.117C22.8501 156.488 24.036 155.873 25.2418 155.266L24.1184 153.033L22.9951 150.799C21.7521 151.425 20.5218 152.063 19.31 152.718L20.499 154.917ZM31.4804 149.507L32.5286 151.776C34.9914 150.639 37.4511 149.529 39.9493 148.384L38.908 146.112L37.8667 143.839C35.4116 144.964 32.8956 146.099 30.4321 147.237L31.4804 149.507ZM46.2976 142.631L47.3983 144.875C49.9025 143.647 52.3728 142.37 54.7636 141.017L53.5317 138.841L52.2998 136.666C50.0186 137.958 47.6404 139.188 45.197 140.386L46.2976 142.631ZM60.4393 134.493L61.8841 136.533C64.2319 134.871 66.4495 133.075 68.4778 131.107L66.7372 129.313L64.9965 127.519C63.1829 129.278 61.1703 130.912 58.9944 132.453L60.4393 134.493ZM71.9786 123.082L74.0569 124.471C75.65 122.088 76.9827 119.498 77.9984 116.666L75.6452 115.822L73.292 114.978C72.4203 117.408 71.2763 119.634 69.9002 121.692L71.9786 123.082ZM77.4718 107.899L79.9553 108.186C80.2676 105.486 80.3314 102.62 80.1258 99.5725L77.6315 99.7408L75.1372 99.909C75.3239 102.677 75.2631 105.236 74.9884 107.612L77.4718 107.899ZM76.5122 91.6834L78.9615 91.1825C78.4281 88.5737 77.7228 85.8459 76.8357 82.9905L74.4483 83.7322L72.0608 84.474C72.9032 87.1853 73.5656 89.7521 74.0629 92.1842L76.5122 91.6834ZM71.7373 76.0638L74.0636 75.1481C73.0983 72.6959 72.0118 70.1565 70.7986 67.5255L68.5284 68.5723L66.2581 69.619C67.4344 72.1703 68.4831 74.6222 69.4111 76.9796L71.7373 76.0638ZM64.9314 61.2292L67.152 60.0808C65.9318 57.7214 64.6178 55.2931 63.2064 52.7934L61.0294 54.0225L58.8524 55.2517C60.2356 57.7014 61.5204 60.0758 62.7108 62.3776L64.9314 61.2292ZM56.9415 47.0365L59.0806 45.7427C57.7132 43.4819 56.2713 41.1661 54.7529 38.7936L52.6472 40.1413L50.5416 41.4889C52.0384 43.8276 53.4578 46.1075 54.8023 48.3304L56.9415 47.0365ZM48.1539 33.2907L50.2297 31.8974C48.737 29.6736 47.181 27.4027 45.5599 25.0834L43.5108 26.5157L41.4618 27.9479C43.0656 30.2425 44.6038 32.4874 46.0782 34.6839L48.1539 33.2907ZM38.8304 19.9365L40.856 18.4712C39.2794 16.292 37.6484 14.0722 35.9616 11.8109L33.9577 13.3056L31.9538 14.8004C33.6266 17.0429 35.2432 19.2431 36.8049 21.4019L38.8304 19.9365ZM29.0616 6.83048L31.0462 5.31015C30.2019 4.20802 29.345 3.09647 28.4753 1.97542L26.5 3.50781L24.5247 5.04021C25.3883 6.15337 26.239 7.25688 27.0771 8.35081L29.0616 6.83048Z" fill="#50665B"/>
<ellipse cx="46" cy="28.0078" rx="15.5" ry="14.5" fill="#E8C500"/>
<ellipse cx="75" cy="296.008" rx="15.5" ry="14.5" fill="#E8C500"/>
<ellipse cx="46" cy="805.008" rx="15.5" ry="14.5" fill="#E8C500"/>
</svg>
